<?xml version="1.0" encoding="UTF-8"?> <svg xmlns="http://www.w3.org/2000/svg" xmlns:xlink="http://www.w3.org/1999/xlink" version="1.1" x="0px" y="0px" viewBox="0 0 400 400" style="enable-background:new 0 0 400 400;" xml:space="preserve"> <path d="M292.8,197.2c-0.2-1-1-1.7-1.9-1.8c-1.2-0.1-2.3,0.7-2.4,2c-3,29.5-10.2,42.1-26.3,61.1c-4.4,5.2-8,10.9-11,17c-6.7-20.8-14.4-51.2-4.1-81.7c1.9,0.4,3.8,0.3,5.6,0c22.2-4.4,38.5-28.1,38-55.1c0-0.4-0.1-0.9-0.4-1.2c-0.7-1-2.1-1.2-3.1-0.6c-22.8,15.8-35.9,33.4-42.9,51.1c-1.7-1.2-3-2.7-4.1-4.5c-0.2-2.2-0.5-4.3-0.8-6.4c-0.2-1.3-1.2-2.3-2.5-2.4c0,0-0.1,0-0.1,0c-3-13.1,0.3-31.7,11.8-47.1c0,7.3-0.3,16.2-0.8,22.9c-0.1,0.8,0.4,1.6,1.1,2.1c1,0.6,2.4,0.3,3-0.8c4.5-7,10.2-13.2,16.8-18.4c-0.2,2.4-0.7,4.7-1.2,7c-0.3,1.2,0.4,2.4,1.6,2.7c1.2,0.3,2.4-0.4,2.7-1.6c0.9-3.5,2.1-9.9,1-12.8c0-0.1-0.1-0.2-0.2-0.3c-0.6-1-2-1.4-3-0.8c-6.4,4.2-12.1,9.5-16.9,15.5c0.3-7.6,0.5-15.9,0.3-21.6c0-0.6-0.3-1.2-0.7-1.6c-0.9-0.8-2.3-0.7-3.1,0.2c-16.8,18.5-20.7,43.4-15.6,59.2c-4.1,37-13.5,53.4-34.1,77.7c-5.7,6.8-10.5,14.2-14.4,22.1c-8.8-27.1-18.8-66.8-5.4-106.6c2.4,0.5,4.9,0.5,7.3,0c29-5.7,50.3-36.6,49.6-71.9c0-0.6-0.2-1.1-0.5-1.6c-0.9-1.3-2.7-1.6-4-0.7c-29.7,20.6-46.9,43.6-55.9,66.7c-2.5-1.8-4.5-4.1-6-6.8c-2.5-4.3-4.1-9.7-4.8-15.7c0-1.2,0.1-2.5,0-3.7c0-0.4-0.1-0.9-0.4-1.2c0,0,0,0-0.1-0.1c-0.6-15.8,4.5-34.9,16.8-51.3c0,9.5-0.4,21.1-1.1,29.9c-0.1,1.1,0.5,2.1,1.4,2.7c1.4,0.8,3.1,0.4,3.9-1c5.9-9.2,13.3-17.3,22-24c-0.3,3.1-0.9,6.2-1.6,9.2c-0.4,1.5,0.6,3.1,2.1,3.5c1.5,0.4,3.1-0.6,3.5-2.1c1.1-4.6,2.8-12.9,1.2-16.8c-0.1-0.1-0.1-0.3-0.2-0.4c-0.8-1.4-2.6-1.8-3.9-1c-8.4,5.5-15.9,12.4-22.1,20.3c0.4-9.9,0.6-20.7,0.4-28.2c0-0.8-0.4-1.5-0.9-2c-1.2-1.1-3-1-4,0.2c-17.2,19-24,43-23,62.5c-21.2,15.3-33.6,32.2-40.3,49.2c-1.9-1.4-3.5-3.2-4.6-5.2c-7.1-12.5-5.4-36.3,8.8-55.2c0,7.3-0.3,16.2-0.8,22.9c-0.1,0.8,0.4,1.6,1.1,2.1c1,0.6,2.4,0.3,3-0.8c4.5-7,10.2-13.2,16.8-18.4c-0.2,2.4-0.7,4.7-1.2,7c-0.3,1.2,0.4,2.4,1.6,2.7c1.2,0.3,2.4-0.4,2.7-1.6c0.9-3.5,2.1-9.9,1-12.8c0-0.1-0.1-0.2-0.2-0.3c-0.6-1-2-1.4-3-0.8c-6.4,4.2-12.1,9.5-16.9,15.5c0.3-7.6,0.5-15.9,0.3-21.6c0-0.6-0.3-1.2-0.7-1.6c-0.9-0.8-2.3-0.7-3.1,0.2c-18.9,20.9-21.6,50-13.1,64.8c1.6,3,4,5.5,6.9,7.3c-11.6,34.1-1.4,68,5.8,89.4c-1.9,4.6-2.7,9.6-2.5,14.6c0.2,3.5,1.9,6.7,4.6,8.9c0.2,0.2,0.5,0.3,0.7,0.4c1.9,0.9,4.2,0.5,5.8-0.9c2.8-2.9,0.8-8.9-3.2-20.8c-0.2-0.7-0.5-1.4-0.7-2.2c3-7.4,7.2-14.2,12.3-20.3c12.5-14.7,19.9-25.8,24.1-43.4c-0.9,33.8-13.7,76.9-34.2,94.7c-0.5,0.5-0.8,1.2-0.7,1.9c0.1,1.2,1.2,2.1,2.4,2c0.4,0,0.9-0.2,1.2-0.5c19.2-16.7,32-54.3,35-87.1c2.2,22.6,8.5,42.9,13.6,58.2c-2.5,6.1-3.6,12.6-3.2,19.1c0.3,4.5,2.4,8.8,6,11.6c0.3,0.2,0.6,0.4,0.9,0.5c3.4,1,5.9,0.6,7.5-1.1c3.7-3.8,1-11.6-4.2-27.1c-0.3-0.9-0.6-1.9-1-2.9c4-9.6,9.4-18.5,16.1-26.5c16.4-19.2,26-33.7,31.5-56.6c-1.1,44.1-17.9,100.4-44.7,123.6c-0.7,0.6-1.1,1.5-1,2.4c0.2,1.6,1.6,2.7,3.1,2.6c0.6-0.1,1.1-0.3,1.6-0.7c21.9-19,37.5-59.1,43.7-97.5c1.4,18.3,6.5,34.8,10.7,47.1c-1.9,4.6-2.7,9.6-2.5,14.6c0.2,3.5,1.9,6.7,4.6,8.9c0.2,0.2,0.5,0.3,0.7,0.4c1.9,0.9,4.2,0.5,5.8-0.9c2.8-2.9,0.8-8.9-3.2-20.8c-0.2-0.7-0.5-1.4-0.7-2.2c3-7.4,7.2-14.2,12.3-20.3c12.5-14.7,19.9-25.8,24.1-43.4c-0.9,33.8-13.7,76.9-34.2,94.7c-0.5,0.5-0.8,1.2-0.7,1.9c0.1,1.2,1.2,2.1,2.4,2c0.4,0,0.9-0.2,1.2-0.5C284.1,293.4,298.3,232.6,292.8,197.2z M286.1,142.9c-1.2,23.1-15.4,42.7-34.4,46.4c-1.1,0.2-2.1,0.3-3.2,0.1C254.9,173.4,266.5,157.4,286.1,142.9z M181.5,166.9c8.3-21,23.4-41.9,49.1-60.8c-1.5,30.2-20.1,55.7-44.9,60.6C184.4,167,182.9,167.1,181.5,166.9L181.5,166.9z M159.7,143.7c0.2,1.4,0.4,2.7,0.7,4c-2.7,21-16.3,38.1-33.9,41.6c-1.1,0.2-2.1,0.3-3.2,0.1C129.4,173.7,140.7,158,159.7,143.7z M128.7,301.4c-0.3,0-0.7,0-1-0.1l0,0c-1.6-1.5-2.5-3.5-2.6-5.6c-0.2-2.3,0-4.7,0.5-7C127.5,294.4,129.2,299.9,128.7,301.4z M165.5,195.4c-1.2-0.1-2.3,0.7-2.4,2c-3,29.5-10.2,42.1-26.3,61.1c-4.4,5.2-8,10.9-11,17c-6.7-20.8-14.4-51.2-4.1-81.7c1.9,0.4,3.8,0.3,5.6,0c17.1-3.4,30.6-18.1,35.8-37c0.6,1.5,1.3,2.9,2,4.2c2.1,3.9,5.2,7.2,9,9.5c-3.3,9.8-5.3,19.7-6.2,29.3c-0.1-0.8-0.2-1.6-0.3-2.4C167.3,196.2,166.5,195.5,165.5,195.4z M188.7,313c-0.4,0-0.9,0-1.3-0.2h0c-2-1.9-3.3-4.5-3.4-7.3c-0.3-3.1,0-6.1,0.7-9.1C187.2,303.8,189.4,311,188.7,313z M242.8,192.1c-0.7,2-1.3,4.1-1.8,6.1c0-2.6-0.1-5.1-0.2-7.6C241.4,191.1,242,191.6,242.8,192.1z M254,301.4c-0.3,0-0.7,0-1-0.1l0,0c-1.6-1.5-2.5-3.5-2.6-5.6c-0.2-2.3,0-4.7,0.5-7C252.9,294.4,254.6,299.9,254,301.4z"></path> </svg> 